<svg xmlns="http://www.w3.org/2000/svg" xmlns:xlink="http://www.w3.org/1999/xlink" version="1.1" id="Layer_1" x="0px" y="0px" style="enable-background:new 0 0 841.89 595.28;" xml:space="preserve" viewBox="244.94 139.69 352 352">
<style type="text/css">
	.st0{display:none;fill:#10203D;}
	.st1{fill:#10203D;}
	.st2{fill:#0F1F3B;}
	.st3{fill:#0F203B;}
	.st4{fill:#101E3C;}
	.st5{fill:#10203C;}
	.st6{fill:#102541;}
	.st7{fill:#122A46;}
	.st8{fill:#10223F;}
	.st9{fill:#10213D;}
	.st10{fill:#10233F;}
	.st11{fill:#112542;}
	.st12{fill:#0F1F3A;}
	.st13{fill:#0F1E3A;}
	.st14{fill:#16334F;}
	.st15{fill:#132C48;}
	.st16{fill:#173551;}
	.st17{fill:#10223E;}
	.st18{fill:#122845;}
	.st19{fill:#101F3C;}
	.st20{fill:#0F1F3C;}
	.st21{fill:#15314E;}
	.st22{fill:#10213E;}
	.st23{fill:#11243F;}
	.st24{fill:#112844;}
	.st25{fill:#122C48;}
	.st26{fill:#0F1D38;}
	.st27{fill:#1A3855;}
	.st28{fill:#102441;}
	.st29{fill:#112440;}
	.st30{fill:#15324E;}
	.st31{fill:#183652;}
	.st32{fill:#163450;}
	.st33{fill:#132E4A;}
	.st34{fill:#102340;}
	.st35{fill:#142F4B;}
	.st36{fill:#112743;}
	.st37{fill:#122B47;}
	.st38{fill:#122945;}
	.st39{fill:#1F3E5A;}
	.st40{fill:#2B4A66;}
	.st41{fill:#0F1E3C;}
	.st42{fill:#102440;}
	.st43{fill:#112845;}
	.st44{fill:#132D49;}
	.st45{fill:#1E3D5A;}
	.st46{fill:#14304C;}
	.st47{fill:#112642;}
	.st48{fill:#112744;}
	.st49{fill:#132C49;}
	.st50{fill:#112745;}
	.st51{fill:#112843;}
	.st52{fill:#0F203D;}
	.st53{fill:#0F1D3A;}
	.st54{fill:#0F1E38;}
	.st55{fill:#122946;}
	.st56{fill:#122B48;}
	.st57{fill:#142E4A;}
	.st58{fill:#15304C;}
	.st59{fill:#0F1E3B;}
	.st60{fill:#193753;}
	.st61{fill:#132D4A;}
	.st62{fill:#162F4B;}
	.st63{fill:#1C3A57;}
	.st64{fill:#15314D;}
	.st65{fill:#1B3A56;}
	.st66{fill:#1A3854;}
	.st67{fill:#1B3A57;}
	.st68{fill:#193854;}
	.st69{fill:#10203B;}
	.st70{fill:#0F1D39;}
	.st71{fill:#0F1C38;}
	.st72{fill:#112643;}
	.st73{fill:#183651;}
	.st74{fill:#122744;}
	.st75{fill:#0F203C;}
	.st76{fill:#1A3955;}
	.st77{fill:#122A47;}
	.st78{fill:#0F1F39;}
	.st79{fill:#122844;}
	.st80{fill:#173450;}
	.st81{fill:#112541;}
	.st82{fill:#142E4B;}
	.st83{fill:#0F1C36;}
	.st84{fill:#142F4C;}
	.st85{fill:#132B48;}
	.st86{fill:#959597;}
	.st87{fill:#3E4147;}
	.st88{fill:#16324E;}
	.st89{fill:#112947;}
	.st90{fill:#21415D;}
	.st91{fill:#1B3B57;}
	.st92{fill:#1F3F5C;}
	.st93{fill:#132D48;}
	.st94{fill:#142D49;}
	.st95{fill:#132A46;}
	.st96{fill:#132541;}
	.st97{fill:#173654;}
	.st98{fill:#193754;}
	.st99{fill:#163451;}
	.st100{fill:#1E3E5A;}
	.st101{fill:#10213C;}
	.st102{fill:#0F1E39;}
	.st103{fill:#0F1C37;}
	.st104{fill:#132F4B;}
	.st105{fill:#24425E;}
	.st106{fill:#102542;}
	.st107{fill:#1F3F5B;}
	.st108{fill:#264663;}
	.st109{fill:#3B3E44;}
	.st110{fill:#112540;}
	.st111{fill:#132C47;}
	.st112{fill:#2A4966;}
	.st113{fill:#173552;}
	.st114{fill:#14304E;}
	.st115{fill:#294965;}
	.st116{fill:#254562;}
	.st117{fill:#E0E0E1;}
	.st118{fill:#959598;}
	.st119{fill:#E2E2E2;}
	.st120{fill:#3D4046;}
	.st121{fill:#C6C8CA;}
	.st122{fill:#1C3B58;}
	.st123{fill:#20405E;}
	.st124{fill:#163350;}
	.st125{fill:#8494A4;}
	.st126{fill:#8393A2;}
	.st127{fill:#53687B;}
	.st128{fill:#8494A3;}
	.st129{fill:#15324F;}
	.st130{fill:#183653;}
	.st131{fill:#0E1B34;}
	.st132{fill:#203E5B;}
	.st133{fill:#0E1832;}
	.st134{fill:#525151;}
	.st135{fill:#111F2E;}
	.st136{fill:#92959A;}
	.st137{fill:#112946;}
	.st138{fill:#212E3B;}
	.st139{fill:#0E1933;}
	.st140{fill:#193652;}
	.st141{fill:#193B59;}
	.st142{fill:#173452;}
	.st143{fill:#153350;}
	.st144{fill:#193855;}
	.st145{fill:#154668;}
	.st146{fill:#14304D;}
	.st147{fill:#1B3D5B;}
	.st148{fill:#1D3A56;}
	.st149{fill:#1C3B57;}
	.st150{fill:#112640;}
	.st151{fill:#122743;}
	.st152{fill:#11233F;}
	.st153{fill:#20405C;}
	.st154{fill:#1D3D59;}
	.st155{fill:#1F3A53;}
	.st156{fill:#142D4A;}
	.st157{fill:#132542;}
	.st158{fill:#1C3450;}
	.st159{fill:#12203C;}
	.st160{fill:#8292A1;}
	.st161{fill:#81909F;}
	.st162{fill:#7F909F;}
	.st163{fill:#92A1AF;}
	.st164{fill:#162E4A;}
	.st165{fill:#576C80;}
	.st166{fill:#44596D;}
	.st167{fill:#3A5268;}
	.st168{fill:#8494A2;}
	.st169{fill:#98A8B8;}
	.st170{fill:#7F8F9E;}
	.st171{fill:#8191A0;}
	.st172{fill:#132744;}
	.st173{fill:#677C8F;}
	.st174{fill:#18314C;}
	.st175{fill:#0F1936;}
	.st176{fill:#1E3D5C;}
	.st177{fill:#244461;}
	.st178{fill:#165175;}
	.st179{fill:#10243A;}
	.st180{fill:#156A8E;}
	.st181{fill:#122440;}
	.st182{fill:#1A3956;}
	.st183{fill:#1378A7;}
	.st184{fill:#176F99;}
	.st185{fill:#112641;}
	.st186{fill:#16587E;}
	.st187{fill:#14648E;}
	.st188{fill:#146E98;}
	.st189{fill:#16567B;}
	.st190{fill:#144166;}
	.st191{fill:#1B84B1;}
	.st192{fill:#15304D;}
	.st193{fill:#165479;}
	.st194{fill:#5A5F6A;}
	.st195{fill:#CCCFD0;}
	.st196{fill:#E4E3E3;}
	.st197{fill:#C4C7C9;}
	.st198{fill:#154469;}
	.st199{fill:#11304F;}
	.st200{fill:#154164;}
	.st201{fill:#133A5C;}
	.st202{fill:#122D4C;}
	.st203{fill:#1E2B37;}
	.st204{fill:#155B81;}
	.st205{fill:#1A4A6F;}
	.st206{fill:#143757;}
	.st207{fill:#174367;}
	.st208{fill:#112C4A;}
	.st209{fill:#14314E;}
	.st210{fill:#102442;}
	.st211{fill:#164060;}
	.st212{fill:#126791;}
	.st213{fill:#FBFCFC;}
	.st214{fill:#91A3B1;}
	.st215{fill:#1A5C7E;}
	.st216{fill:#597D96;}
	.st217{fill:#274763;}
	.st218{fill:#163452;}
	.st219{fill:#132B49;}
	.st220{fill:#122A48;}
	.st221{fill:#777677;}
	.st222{fill:#8798A7;}
	.st223{fill:#213E5B;}
	.st224{fill:#778899;}
	.st225{fill:#7E8E9D;}
	.st226{fill:#8091A0;}
	.st227{fill:#8D9EAD;}
	.st228{fill:#0D1433;}
	.st229{fill:#8696A5;}
	.st230{fill:#8A9AAA;}
	.st231{fill:#8999A8;}
	.st232{fill:#1F3D5A;}
	.st233{fill:#11213D;}
	.st234{fill:#8999A9;}
	.st235{fill:#7E8F9D;}
	.st236{fill:#11223E;}
	.st237{fill:#112F4F;}
	.st238{fill:#175276;}
	.st239{fill:#122F4E;}
	.st240{fill:#1B88B5;}
	.st241{fill:#0D1530;}
	.st242{fill:#116E99;}
	.st243{fill:#156087;}
	.st244{fill:#13395D;}
	.st245{fill:#112A49;}
	.st246{fill:#15729E;}
	.st247{fill:#194A6D;}
	.st248{fill:#15587E;}
	.st249{fill:#0D132F;}
	.st250{fill:#133D5D;}
	.st251{fill:#136F98;}
	.st252{fill:#1D8FBD;}
	.st253{fill:#1D8BBB;}
	.st254{fill:#165D81;}
	.st255{fill:#153454;}
	.st256{fill:#10223D;}
	.st257{fill:#0E1733;}
	.st258{fill:#102948;}
	.st259{fill:#0E1B35;}
	.st260{fill:#15577A;}
	.st261{fill:#1A7BA7;}
	.st262{fill:#133151;}
	.st263{fill:#16557A;}
	.st264{fill:#0D1630;}
	.st265{fill:#146288;}
	.st266{fill:#15577C;}
	.st267{fill:#175377;}
	.st268{fill:#175076;}
	.st269{fill:#0D152F;}
	.st270{fill:#14658D;}
	.st271{fill:#0A0F26;}
	.st272{fill:#155D83;}
	.st273{fill:#194365;}
	.st274{fill:#175B7F;}
	.st275{fill:#165075;}
	.st276{fill:#1676A0;}
	.st277{fill:#0F223D;}
	.st278{fill:#15587D;}
	.st279{fill:#212020;}
	.st280{fill:#F6F6F6;}
	.st281{fill:#AAA8A7;}
	.st282{fill:#343434;}
	.st283{fill:#D7D9DA;}
	.st284{fill:#EEF0F0;}
	.st285{fill:#12233E;}
	.st286{fill:#153451;}
	.st287{fill:#183D5C;}
	.st288{fill:#183F60;}
	.st289{fill:#175180;}
	.st290{fill:#9E9E9E;}
	.st291{fill:#7C8C9B;}
	.st292{fill:#133A5D;}
	.st293{fill:#185788;}
	.st294{fill:#18598A;}
	.st295{fill:#185989;}
	.st296{fill:#185787;}
	.st297{fill:#123151;}
	.st298{fill:#0E1934;}
	.st299{fill:#102B49;}
	.st300{fill:#0C132E;}
	.st301{fill:#16638A;}
	.st302{fill:#175277;}
	.st303{fill:#112E4D;}
	.st304{fill:#194B74;}
	.st305{fill:#123758;}
	.st306{fill:#242525;}
	.st307{fill:#1A658B;}
	.st308{fill:#175075;}
	.st309{fill:#175380;}
	.st310{fill:#C8C8C7;}
	.st311{fill:#353839;}
	.st312{fill:#8395A5;}
	.st313{fill:#B2B3B4;}
	.st314{fill:#8292A2;}
	.st315{fill:#7FA6BB;}
	.st316{fill:#1D547E;}
	.st317{fill:#132F4E;}
	.st318{fill:#2D2F30;}
	.st319{fill:#8FA2B1;}
	.st320{fill:#353431;}
	.st321{fill:#E8E8E7;}
	.st322{fill:#25292B;}
	.st323{fill:#185483;}
	.st324{fill:#383E41;}
	.st325{fill:#2B2B2A;}
	.st326{fill:#1A6590;}
	.st327{fill:#1C517A;}
	.st328{fill:#1B7AAD;}
	.st329{fill:#333B3F;}
	.st330{fill:#8094A5;}
	.st331{fill:#112945;}
	.st332{fill:#203F5B;}
	.st333{fill:#80909F;}
	.st334{fill:#112340;}
	.st335{fill:#152D49;}
	.st336{fill:#808F9C;}
	.st337{fill:#0F1C3B;}
	.st338{fill:#8595A5;}
	.st339{fill:#51667A;}
	.st340{fill:#142844;}
	.st341{fill:#52687C;}
	.st342{fill:#18446A;}
	.st343{fill:#11213E;}
	.st344{fill:#1F3B57;}
	.st345{fill:#1B3550;}
	.st346{fill:#0F1935;}
	.st347{fill:#187DA7;}
	.st348{fill:#112846;}
	.st349{fill:#0C162E;}
	.st350{fill:#193956;}
	.st351{fill:#196C96;}
	.st352{fill:#156693;}
	.st353{fill:#1674A3;}
	.st354{fill:#175D8D;}
	.st355{fill:#26292A;}
	.st356{fill:#183956;}
	.st357{fill:#21405C;}
	.st358{fill:#1C8AB8;}
	.st359{fill:#1C94C1;}
	.st360{fill:#13415F;}
	.st361{fill:#1D8DBC;}
	.st362{fill:#144261;}
	.st363{fill:#177AA8;}
	.st364{fill:#174863;}
	.st365{fill:#173755;}
	.st366{fill:#184E76;}
	.st367{fill:#0D1A34;}
	.st368{fill:#165579;}
	.st369{fill:#12304F;}
	.st370{fill:#16577C;}
	.st371{fill:#165A7E;}
	.st372{fill:#122D4B;}
	.st373{fill:#14597F;}
	.st374{fill:#0C122C;}
	.st375{fill:#112D4C;}
	.st376{fill:#102847;}
	.st377{fill:#194867;}
	.st378{fill:#143C60;}
	.st379{fill:#185888;}
	.st380{fill:#1D3C59;}
	.st381{fill:#2B2B2B;}
	.st382{fill:#2A2B2A;}
	.st383{fill:#5784A0;}
	.st384{fill:#166795;}
	.st385{fill:#8898A7;}
	.st386{fill:#17486F;}
	.st387{fill:#185984;}
	.st388{fill:#156393;}
	.st389{fill:#122644;}
	.st390{fill:#102341;}
	.st391{fill:#6D7F90;}
	.st392{fill:#175074;}
	.st393{fill:#134161;}
	.st394{fill:#1A4263;}
	.st395{fill:#18537A;}
	.st396{fill:#1F1C1A;}
	.st397{fill:#ADA9A6;}
	.st398{fill:#1A1A1A;}
	.st399{fill:#E1DBD8;}
	.st400{fill:#999A9A;}
	.st401{fill:#176793;}
	.st402{fill:#185381;}
	.st403{fill:#18517F;}
	.st404{fill:#175D8A;}
	.st405{fill:#1E5572;}
	.st406{fill:#156997;}
	.st407{fill:#175D89;}
	.st408{fill:#136C9B;}
	.st409{fill:#153D61;}
	.st410{fill:#132945;}
	.st411{fill:#165E8D;}
	.st412{fill:#7F8F9D;}
	.st413{fill:#0F1836;}
	.st414{fill:#8B9BAB;}
	.st415{fill:#1B1A1A;}
	.st416{fill:#143252;}
	.st417{fill:#214463;}
	.st418{fill:#212627;}
	.st419{fill:#13233F;}
	.st420{fill:#17304C;}
	.st421{fill:#788899;}
	.st422{fill:#192F4B;}
	.st423{fill:#143555;}
	.st424{fill:#22150B;}
	.st425{fill:#146999;}
	.st426{fill:#13385C;}
	.st427{fill:#1A83B1;}
	.st428{fill:#185583;}
	.st429{fill:#185B89;}
	.st430{fill:#173B5A;}
	.st431{fill:#133A5E;}
	.st432{fill:#7E8E9C;}
	.st433{fill:#7F909E;}
	.st434{fill:#7E8E9E;}
	.st435{fill:#354E66;}
	.st436{fill:#486077;}
	.st437{fill:#12375A;}
	.st438{fill:#185687;}
	.st439{fill:#112E4E;}
	.st440{fill:#156A97;}
	.st441{fill:#166190;}
	.st442{fill:#688CA1;}
	.st443{fill:#1372A1;}
	.st444{fill:#133B61;}
	.st445{fill:#165F8F;}
	.st446{fill:#12385B;}
	.st447{fill:#215274;}
	.st448{fill:#174C76;}
	.st449{fill:#19486B;}
	.st450{fill:#144065;}
	.st451{fill:#0E1533;}
	.st452{fill:#1A4567;}
	.st453{fill:#143B5B;}
	.st454{fill:#173958;}
	.st455{fill:#164E76;}
	.st456{fill:#123457;}
	.st457{fill:#122E4D;}
	.st458{fill:#122C4A;}
	.st459{fill:#0E1834;}
	.st460{fill:#193E5D;}
	.st461{fill:#112B4B;}
	.st462{fill:#154266;}
	.st463{fill:#123557;}
	.st464{filter:url(#Adobe_OpacityMaskFilter);}
	.st465{mask:url(#SVGID_1_);}
	.st466{fill:#1F84AF;}
	.st467{fill:url(#SVGID_00000024001946100680645700000000507654013079552950_);}
	.st468{fill:url(#SVGID_00000008845450203659640320000004663394024920226725_);}
	.st469{fill:url(#SVGID_00000067939376628343401450000004134911254907314102_);}
	.st470{fill:url(#SVGID_00000013177629876546165860000009089244649344952726_);}
	.st471{fill:url(#SVGID_00000065777204620766126750000000176528666312033672_);}
	.st472{fill:url(#SVGID_00000003097229116168649960000000809579340719950230_);}
	.st473{fill:url(#SVGID_00000073693834344348398230000011095426996610843529_);}
	.st474{fill:url(#SVGID_00000109018128323270448730000009849701175529710257_);}
	
		.st475{fill:none;stroke:url(#SVGID_00000067207598621672205080000014267566536338759057_);stroke-width:3.5864;stroke-linecap:square;stroke-miterlimit:10;}
	.st476{fill:url(#SVGID_00000133521748871581815510000011819778535658477458_);}
	.st477{fill:url(#SVGID_00000168811543765685528100000008598817149458396332_);}
	.st478{fill:url(#SVGID_00000052809670640894945710000007638939947790324402_);}
	.st479{fill:url(#SVGID_00000031889551749888936200000002149885888146818181_);}
	.st480{fill:url(#SVGID_00000131338643940792889530000018416056209665691803_);}
	.st481{fill:url(#SVGID_00000152257878718419105380000009151927264686475160_);}
	
		.st482{fill:none;stroke:url(#SVGID_00000043454301779367156350000003513551669828043907_);stroke-width:3.5864;stroke-linecap:square;stroke-miterlimit:10;}
	.st483{fill:none;stroke:url(#SVGID_00000069377609933578100060000007113144604413537937_);stroke-miterlimit:10;}
</style>
<g>
	<path d="M586.94,139.69h-332h-10v10v332v10h10h332h10v-10v-332v-10H586.94z M590.94,149.69v332v4h-4h-332h-4v-4v-332v-4h4h332h4   V149.69z"/>
	<path d="M254.94,149.69v332h332v-332H254.94z M391.01,393.44c0.44-0.36,0.99-0.53,1.64-0.53c0.65,0,1.19,0.18,1.64,0.53   c0.44,0.36,0.66,0.79,0.66,1.31c0,0.53-0.22,0.97-0.65,1.32c-0.43,0.35-0.98,0.52-1.65,0.52c-0.67,0-1.21-0.17-1.65-0.52   c-0.43-0.35-0.65-0.79-0.65-1.32C390.35,394.24,390.57,393.8,391.01,393.44z M310.86,412.66c0.4,1.16,0.96,2.12,1.65,2.89   c1.09,1.22,2.37,1.83,3.84,1.83c1.21,0,2.22-0.41,3.02-1.24c0.4-0.44,0.79-1.14,1.16-2.12l0.38,0.14   c-0.44,1.44-1.12,2.48-2.04,3.12c-0.91,0.64-2.17,0.96-3.77,0.96c-2.56,0-4.57-0.82-6.03-2.45c-1.42-1.6-2.13-3.63-2.13-6.07   c0-1.2,0.2-2.38,0.59-3.55c0.39-1.17,0.93-2.17,1.62-3c0.77-0.95,1.72-1.68,2.84-2.18c1.12-0.5,2.35-0.75,3.68-0.75   c1.84,0,3.28,0.44,4.32,1.32c0.63,0.54,0.95,1.14,0.95,1.79c0,0.44-0.13,0.8-0.4,1.09c-0.27,0.29-0.59,0.44-0.97,0.44   c-0.82,0-1.43-0.65-1.83-1.94c-0.18-0.6-0.32-1.01-0.43-1.22c-0.11-0.22-0.26-0.41-0.46-0.57c-0.39-0.31-0.87-0.47-1.44-0.47   c-0.75,0-1.44,0.22-2.07,0.67c-0.56,0.39-1.03,0.89-1.41,1.48c-0.39,0.59-0.72,1.34-1.01,2.23c-0.44,1.37-0.66,2.72-0.66,4.04   C310.25,410.33,310.46,411.51,310.86,412.66z M338.77,303.69h-57.7v76h-15.13v-156h88.4v6.49h-73.4v67.51h57.83V303.69z    M361.09,418.25h-12.67v-0.41c1.15-0.1,1.97-0.25,2.47-0.44c0.5-0.19,0.9-0.51,1.2-0.97c0.21-0.3,0.36-0.75,0.44-1.36   c0.09-0.61,0.13-1.48,0.13-2.63v-15.37c0-1.33-0.05-2.27-0.14-2.82c-0.1-0.55-0.31-0.99-0.63-1.33c-0.33-0.37-0.72-0.63-1.18-0.78   c-0.46-0.16-1.12-0.25-1.98-0.29v-0.43l8.26-0.71v21.87l0.03,1.49c0,0.89,0.08,1.54,0.23,1.95c0.15,0.41,0.45,0.75,0.89,1.03   c0.54,0.35,1.52,0.62,2.95,0.8V418.25z M397.3,418.25h-8.36v-0.48c0.76-0.12,1.3-0.29,1.63-0.51c0.33-0.22,0.59-0.59,0.79-1.11   c0.14-0.35,0.24-0.87,0.29-1.56c0.06-0.7,0.09-1.71,0.09-3.03v-5.56c0-1.54-0.03-2.63-0.09-3.25c-0.06-0.62-0.2-1.13-0.42-1.52   c-0.21-0.42-0.47-0.72-0.78-0.91c-0.3-0.19-0.74-0.3-1.3-0.35v-0.47l5.45-0.81v13.02l0.02,1.71c0,1.02,0.05,1.77,0.15,2.24   c0.1,0.47,0.3,0.87,0.59,1.18c0.35,0.41,1,0.71,1.95,0.92V418.25z M412.31,379.69h-15.06v-156h15.06V379.69z M448.94,418.25h-9.54   v-0.44c0.86-0.11,1.48-0.27,1.86-0.47s0.68-0.54,0.91-1.03c0.16-0.32,0.27-0.8,0.33-1.44s0.1-1.57,0.1-2.78v-4.41   c0-1.51-0.05-2.62-0.16-3.33c-0.11-0.71-0.31-1.27-0.61-1.7c-0.33-0.48-0.8-0.86-1.42-1.13c-0.62-0.27-1.3-0.41-2.05-0.41   c-0.8,0-1.55,0.15-2.25,0.46c-0.7,0.3-1.25,0.72-1.65,1.25c-0.43,0.55-0.71,1.18-0.85,1.88c-0.14,0.7-0.2,1.86-0.2,3.48v4.07   l0.02,1.54c0,0.94,0.06,1.63,0.17,2.07c0.12,0.44,0.34,0.8,0.67,1.09c0.4,0.37,1.14,0.66,2.22,0.85v0.44h-9.54v-0.44   c0.86-0.11,1.48-0.27,1.86-0.47c0.37-0.2,0.68-0.54,0.91-1.03c0.16-0.32,0.27-0.8,0.33-1.44c0.06-0.64,0.1-1.57,0.1-2.79v-5.11   c0-1.42-0.04-2.42-0.11-2.99c-0.07-0.57-0.23-1.04-0.48-1.4c-0.24-0.39-0.54-0.67-0.88-0.84c-0.35-0.17-0.84-0.28-1.49-0.32V401   l5.91-0.75c0.2,0.81,0.3,1.56,0.3,2.26v0.33c1.78-1.73,3.91-2.59,6.37-2.59c1.84,0,3.33,0.42,4.45,1.25   c1.11,0.82,1.66,1.98,1.66,3.49v8.81c0,0.94,0.06,1.63,0.17,2.07c0.12,0.44,0.34,0.8,0.67,1.09c0.4,0.37,1.14,0.66,2.22,0.85   V418.25z M487.3,418.25h-8.36v-0.48c0.76-0.12,1.3-0.29,1.63-0.51c0.33-0.22,0.59-0.59,0.79-1.11c0.14-0.35,0.24-0.87,0.29-1.56   c0.06-0.7,0.09-1.71,0.09-3.03v-5.56c0-1.54-0.03-2.63-0.09-3.25c-0.06-0.62-0.2-1.13-0.42-1.52c-0.21-0.42-0.47-0.72-0.78-0.91   c-0.3-0.19-0.74-0.3-1.3-0.35v-0.47l5.45-0.81v13.02l0.02,1.71c0,1.02,0.05,1.77,0.15,2.24c0.1,0.47,0.3,0.87,0.59,1.18   c0.35,0.41,1,0.71,1.95,0.92V418.25z M480.35,394.75c0-0.52,0.22-0.95,0.66-1.31c0.44-0.36,0.99-0.53,1.64-0.53   c0.65,0,1.19,0.18,1.64,0.53c0.44,0.36,0.66,0.79,0.66,1.31c0,0.53-0.22,0.97-0.65,1.32c-0.43,0.35-0.98,0.52-1.65,0.52   c-0.67,0-1.21-0.17-1.65-0.52C480.57,395.72,480.35,395.28,480.35,394.75z M520.86,412.49c0.4,1.19,0.96,2.19,1.65,2.98   c1.09,1.26,2.37,1.89,3.84,1.89c1.21,0,2.22-0.43,3.02-1.28c0.4-0.45,0.79-1.18,1.16-2.19l0.38,0.15   c-0.44,1.48-1.12,2.56-2.04,3.22c-0.91,0.66-2.17,0.99-3.77,0.99c-2.56,0-4.57-0.84-6.03-2.52c-1.42-1.65-2.13-3.74-2.13-6.26   c0-1.23,0.2-2.45,0.59-3.66c0.39-1.2,0.93-2.23,1.62-3.09c0.77-0.98,1.72-1.73,2.84-2.25c1.12-0.52,2.35-0.78,3.68-0.78   c1.84,0,3.28,0.46,4.32,1.37c0.63,0.56,0.95,1.18,0.95,1.85c0,0.45-0.13,0.82-0.4,1.12c-0.27,0.3-0.59,0.45-0.97,0.45   c-0.82,0-1.43-0.67-1.83-2c-0.18-0.62-0.32-1.04-0.43-1.26c-0.11-0.22-0.26-0.42-0.46-0.59c-0.39-0.32-0.87-0.48-1.44-0.48   c-0.75,0-1.44,0.23-2.07,0.69c-0.56,0.41-1.03,0.91-1.41,1.52c-0.39,0.61-0.72,1.38-1.01,2.3c-0.44,1.42-0.66,2.8-0.66,4.16   C520.26,410.08,520.46,411.3,520.86,412.49z M559.37,379.69l-45.57-71.03l-50.69,71.03h-7.4l54.76-76.22l-51.19-79.78h17.11   l43.23,67.04l48.17-67.04h6.64l-51.5,72.17l54.06,83.83H559.37z"/>
</g>
</svg>